<svg width="189" height="24" viewBox="0 0 189 24" fill="none" xmlns="http://www.w3.org/2000/svg">
<path d="M32.4167 6.08008C27.4764 6.08008 23.4573 10.0991 23.4573 15.0394C23.4573 19.9801 27.4764 23.9989 32.4167 23.9989C37.357 23.9989 41.376 19.9801 41.376 15.0394C41.376 10.0991 37.357 6.08008 32.4167 6.08008ZM32.4167 21.096C29.0769 21.096 26.3603 18.3792 26.3603 15.0394C26.3603 11.7 29.0769 8.98301 32.4167 8.98301C35.7565 8.98301 38.4731 11.7 38.4731 15.0394C38.4731 18.3792 35.7565 21.096 32.4167 21.096Z" fill="white"/>
<path d="M82.2907 6.08008C77.3504 6.08008 73.3313 10.0991 73.3313 15.0394C73.3313 19.9801 77.3504 23.9989 82.2907 23.9989C84.7973 23.9989 87.2062 22.9385 88.8996 21.0886C89.4411 20.4974 89.4009 19.5794 88.8096 19.0381C88.2188 18.4968 87.3 18.5369 86.7591 19.1281C85.6137 20.3786 83.9851 21.096 82.2907 21.096C79.4522 21.096 77.0705 19.1307 76.4175 16.4908H89.7985C90.6004 16.4908 91.2501 15.8412 91.2501 15.0394C91.2501 10.0991 87.231 6.08008 82.2907 6.08008ZM82.2907 8.98301C85.1291 8.98301 87.511 10.9485 88.1638 13.5879H76.4175C77.0705 10.9485 79.4522 8.98301 82.2907 8.98301Z" fill="white"/>
<path d="M16.0231 17.9706C15.3547 17.5277 14.4538 17.7102 14.0116 18.3788C12.8842 20.08 10.9953 21.0958 8.95932 21.0958C5.6199 21.0958 2.90294 18.3792 2.90294 15.0394C2.90294 11.7001 5.6199 8.98313 8.95932 8.98313C9.88308 8.98313 10.7692 9.18541 11.593 9.584C12.3136 9.934 13.1823 9.63187 13.5317 8.91027C13.881 8.18902 13.5797 7.32064 12.8578 6.97134C11.6365 6.37975 10.3247 6.08008 8.95932 6.08008C4.01901 6.08008 0 10.0992 0 15.0394C0 19.9798 4.01901 23.9988 8.95932 23.9988C11.9714 23.9988 14.7651 22.4973 16.4314 19.9819C16.8743 19.314 16.6913 18.4131 16.0231 17.9706Z" fill="white"/>
<path d="M64.3608 0C63.5593 0 62.9094 0.649908 62.9094 1.45153V8.44481C61.3132 6.97815 59.1864 6.08114 56.853 6.08114C51.9124 6.08114 47.8933 10.0999 47.8933 15.0405C47.8933 19.9808 51.9124 23.9998 56.853 23.9998C59.1864 23.9998 61.3132 23.1028 62.9094 21.6357V22.5482C62.9094 23.3501 63.5593 23.9998 64.3608 23.9998C65.1624 23.9998 65.8124 23.3501 65.8124 22.5482V1.45153C65.8124 0.649908 65.1624 0 64.3608 0ZM56.853 21.0967C53.5132 21.0967 50.7962 18.3799 50.7962 15.0405C50.7962 11.7007 53.5132 8.98419 56.853 8.98419C60.1924 8.98419 62.9094 11.7007 62.9094 15.0405C62.9094 18.3799 60.1924 21.0967 56.853 21.0967Z" fill="white"/>
<path d="M139.397 6.08008C138.595 6.08008 137.945 6.72999 137.945 7.53161V8.4441C136.35 6.97744 134.222 6.08008 131.889 6.08008C126.948 6.08008 122.929 10.0991 122.929 15.0394C122.929 19.9801 126.948 23.9989 131.889 23.9989C134.222 23.9989 136.35 23.1017 137.945 21.635V22.5475C137.945 23.349 138.595 23.9989 139.397 23.9989C140.198 23.9989 140.848 23.349 140.848 22.5475V7.53161C140.848 6.72999 140.198 6.08008 139.397 6.08008ZM131.889 21.096C128.549 21.096 125.832 18.3792 125.832 15.0394C125.832 11.7 128.549 8.98301 131.889 8.98301C135.228 8.98301 137.945 11.7 137.945 15.0394C137.945 18.3792 135.228 21.096 131.889 21.096Z" fill="white"/>
<path d="M157.372 6.08008C152.431 6.08008 148.413 10.0991 148.413 15.0394V22.5475C148.413 23.349 149.062 23.9989 149.864 23.9989C150.666 23.9989 151.316 23.349 151.316 22.5475V15.0394C151.316 11.7 154.032 8.98301 157.372 8.98301C160.712 8.98301 163.428 11.7 163.428 15.0394V22.5475C163.428 23.349 164.078 23.9989 164.879 23.9989C165.682 23.9989 166.331 23.349 166.331 22.5475V15.0394C166.331 10.0991 162.312 6.08008 157.372 6.08008Z" fill="white"/>
<path d="M107.705 6.08114C105.372 6.08114 103.245 6.9785 101.649 8.44516V1.45141C101.649 0.649908 100.999 0 100.198 0C99.3958 0 98.7461 0.649908 98.7461 1.45141V22.5486C98.7461 23.3501 99.3958 24 100.198 24C100.999 24 101.649 23.3501 101.649 22.5486V21.6361C103.245 23.1028 105.372 24 107.705 24C112.645 24 116.664 19.9811 116.664 15.0405C116.664 10.1001 112.645 6.08114 107.705 6.08114ZM107.705 21.0971C104.366 21.0971 101.649 18.3802 101.649 15.0405C101.649 11.701 104.366 8.98407 107.705 8.98407C111.045 8.98407 113.762 11.701 113.762 15.0405C113.762 18.3802 111.045 21.0971 107.705 21.0971Z" fill="white"/>
<path d="M185.813 18.4905L181.595 13.0296L188.134 6.5405C188.703 5.97577 188.707 5.05705 188.142 4.48775C187.578 3.91869 186.659 3.91493 186.089 4.47966L176.247 14.2466V1.45153C176.247 0.649673 175.597 0 174.796 0C173.994 0 173.344 0.649673 173.344 1.45153V22.5484C173.344 23.3499 173.994 23.9998 174.796 23.9998C175.597 23.9998 176.247 23.3499 176.247 22.5484V18.3367L179.518 15.0907L183.515 20.2653C183.801 20.6352 184.23 20.8294 184.665 20.8294C184.974 20.8294 185.286 20.7308 185.552 20.5266C186.185 20.0366 186.303 19.1254 185.813 18.4905Z" fill="white"/>
<path d="M187.112 21.0967C186.313 21.0967 185.666 21.7447 185.666 22.544C185.666 23.3434 186.313 23.9909 187.112 23.9909C187.912 23.9909 188.56 23.3434 188.56 22.544C188.56 21.7447 187.912 21.0967 187.112 21.0967Z" fill="white"/>
<path d="M15.22 12.2912C16.0193 12.2912 16.6673 11.6432 16.6673 10.8439C16.6673 10.0447 16.0193 9.39697 15.22 9.39697C14.4207 9.39697 13.7727 10.0447 13.7727 10.8439C13.7727 11.6432 14.4207 12.2912 15.22 12.2912Z" fill="white"/>
</svg>
