<svg width="387" height="452" viewBox="0 0 387 452" fill="none" xmlns="http://www.w3.org/2000/svg">
<path d="M40.2942 246.338C35.2222 242.956 32.6862 237.884 32.6862 231.121C32.6862 227.739 33.8134 224.358 36.0676 220.976C36.0676 220.413 37.7582 218.44 41.1396 215.058L102.849 158.417L19.1609 149.118L12.3982 147.427C7.88978 146.3 4.50845 143.482 2.25422 138.973C0 133.901 -0.563556 128.829 0.563556 123.756L14.9342 80.6416C16.0613 76.1328 18.8791 72.7513 23.3876 70.4969C28.4596 68.2426 33.2498 67.679 37.7582 68.8061L44.5209 72.1877L117.22 112.766L101.158 30.7636L100.313 24.0005C100.313 19.4918 102.004 15.2648 105.385 11.3197C109.33 7.37454 113.838 5.40198 118.91 5.40198H164.558C169.63 5.40198 173.857 7.37454 177.238 11.3197C181.183 15.2648 183.156 19.4918 183.156 24.0005L182.31 30.7636L164.558 113.612L238.948 72.1877L245.71 68.8061C246.837 68.2426 248.246 67.9608 249.937 67.9608C254.445 67.9608 258.39 69.088 261.772 71.3423C265.717 73.5967 267.971 76.6965 268.534 80.6416L282.905 123.756L283.75 128.829C283.75 132.774 282.341 136.719 279.524 140.664C277.269 144.046 274.452 146.3 271.07 147.427L264.308 149.118L179.774 159.263L242.329 215.058C245.71 218.44 247.401 220.413 247.401 220.976C249.655 224.358 250.782 227.739 250.782 231.121C250.782 237.884 248.246 242.956 243.174 246.338L206.825 273.39C203.444 275.081 199.781 275.926 195.836 275.926C188.509 275.926 183.437 273.672 180.62 269.163L177.238 263.246L141.734 185.47L106.23 263.246C105.103 265.5 103.694 267.473 102.004 269.163C99.1858 273.672 94.1138 275.926 86.7876 275.926C82.8427 275.926 79.1796 275.081 75.7983 273.39L40.2942 246.338Z" fill="#191919"/>
<g clip-path="url(#clip0)">
<path d="M131.698 123.976H48.4883C45.2209 123.976 42.5525 121.557 42.5525 118.596V68.9167C42.5525 65.9552 45.2209 63.5366 48.4883 63.5366H131.698C134.965 63.5366 137.634 65.9552 137.634 68.9167V118.571C137.634 121.557 134.965 123.976 131.698 123.976Z" fill="white"/>
<path d="M42.5796 63.2113C42.5796 60.2033 45.0181 57.7649 48.0256 57.7649H132.16C135.168 57.7649 137.606 60.2047 137.606 63.2113V69.4716H42.5796V63.2113Z" fill="#E1E5F0"/>
<path d="M57.2148 91.5237H67.6977C68.5624 91.5237 69.2633 92.2246 69.2633 93.0892C69.2633 93.9537 68.5624 94.6546 67.6977 94.6546H57.2148C56.3501 94.6546 55.6492 93.9537 55.6492 93.0892C55.6492 92.2246 56.3501 91.5237 57.2148 91.5237ZM57.2148 108.948H67.6977C68.5624 108.948 69.2633 109.649 69.2633 110.513C69.2633 111.378 68.5624 112.079 67.6977 112.079H57.2148C56.3501 112.079 55.6492 111.378 55.6492 110.513C55.6492 109.649 56.3501 108.948 57.2148 108.948ZM73.2795 91.5237H83.7624C84.6271 91.5237 85.328 92.2246 85.328 93.0892C85.328 93.9537 84.6271 94.6546 83.7624 94.6546H73.2795C72.4148 94.6546 71.7139 93.9537 71.7139 93.0892C71.7139 92.2246 72.4148 91.5237 73.2795 91.5237ZM73.2795 108.948H83.7624C84.6271 108.948 85.328 109.649 85.328 110.513C85.328 111.378 84.6271 112.079 83.7624 112.079H73.2795C72.4148 112.079 71.7139 111.378 71.7139 110.513C71.7139 109.649 72.4148 108.948 73.2795 108.948ZM89.3442 91.5237H99.8271C100.692 91.5237 101.393 92.2246 101.393 93.0892C101.393 93.9537 100.692 94.6546 99.8271 94.6546H89.3442C88.4795 94.6546 87.7786 93.9537 87.7786 93.0892C87.7786 92.2246 88.4795 91.5237 89.3442 91.5237ZM89.3442 108.948H99.8271C100.692 108.948 101.393 109.649 101.393 110.513C101.393 111.378 100.692 112.079 99.8271 112.079H89.3442C88.4795 112.079 87.7786 111.378 87.7786 110.513C87.7786 109.649 88.4795 108.948 89.3442 108.948ZM57.2148 82.8118H76.683C77.5477 82.8118 78.2487 83.5126 78.2487 84.3772C78.2487 85.2418 77.5477 85.9426 76.683 85.9426H57.2148C56.3501 85.9426 55.6492 85.2418 55.6492 84.3772C55.6492 83.5126 56.3501 82.8118 57.2148 82.8118ZM101.325 82.8118H123.243C124.108 82.8118 124.809 83.5126 124.809 84.3772C124.809 85.2418 124.108 85.9426 123.243 85.9426H101.325C100.46 85.9426 99.759 85.2418 99.759 84.3772C99.759 83.5126 100.46 82.8118 101.325 82.8118ZM101.325 100.236H123.243C124.108 100.236 124.809 100.937 124.809 101.801C124.809 102.666 124.108 103.367 123.243 103.367H101.325C100.46 103.367 99.759 102.666 99.759 101.801C99.759 100.937 100.46 100.236 101.325 100.236ZM82.2648 100.236H86.2129C87.0776 100.236 87.7786 100.937 87.7786 101.801C87.7786 102.666 87.0776 103.367 86.2129 103.367H82.2648C81.4002 103.367 80.6992 102.666 80.6992 101.801C80.6992 100.937 81.4002 100.236 82.2648 100.236ZM91.7947 82.8118H95.7428C96.6075 82.8118 97.3085 83.5126 97.3085 84.3772C97.3085 85.2418 96.6075 85.9426 95.7428 85.9426H91.7947C90.9301 85.9426 90.2291 85.2418 90.2291 84.3772C90.2291 83.5126 90.9301 82.8118 91.7947 82.8118ZM105.409 91.5237H123.243C124.108 91.5237 124.809 92.2246 124.809 93.0892C124.809 93.9537 124.108 94.6546 123.243 94.6546H105.409C104.544 94.6546 103.843 93.9537 103.843 93.0892C103.843 92.2246 104.544 91.5237 105.409 91.5237Z" fill="#E1E5F0"/>
<path d="M57.2148 100.236H76.683C77.5477 100.236 78.2487 100.937 78.2487 101.801C78.2487 102.666 77.5477 103.367 76.683 103.367H57.2148C56.3501 103.367 55.6492 102.666 55.6492 101.801C55.6492 100.937 56.3501 100.236 57.2148 100.236ZM91.7947 100.236H95.7428C96.6075 100.236 97.3085 100.937 97.3085 101.801C97.3085 102.666 96.6075 103.367 95.7428 103.367H91.7947C90.9301 103.367 90.2291 102.666 90.2291 101.801C90.2291 100.937 90.9301 100.236 91.7947 100.236Z" fill="#A339FF"/>
<path d="M82.2648 82.8118H86.2129C87.0776 82.8118 87.7786 83.5126 87.7786 84.3772C87.7786 85.2418 87.0776 85.9426 86.2129 85.9426H82.2648C81.4002 85.9426 80.6992 85.2418 80.6992 84.3772C80.6992 83.5126 81.4002 82.8118 82.2648 82.8118ZM105.409 108.948H123.243C124.108 108.948 124.809 109.649 124.809 110.513C124.809 111.378 124.108 112.079 123.243 112.079H105.409C104.544 112.079 103.843 111.378 103.843 110.513C103.843 109.649 104.544 108.948 105.409 108.948Z" fill="#FF5645"/>
<path d="M56.4661 49.3252H22.4308C19.4232 49.3252 16.9851 51.763 16.9851 54.7702V71.9218C16.9851 74.929 19.4232 77.3668 22.4308 77.3668H56.4661C59.4737 77.3668 61.9118 74.929 61.9118 71.9218V54.7702C61.9118 51.763 59.4737 49.3252 56.4661 49.3252Z" fill="#D4D73B"/>
<path fill-rule="evenodd" clip-rule="evenodd" d="M34.0189 57.7425C34.3846 58.197 34.3126 58.8619 33.8581 59.2276L28.045 63.9042L34.0542 67.196C34.5659 67.4763 34.7535 68.1182 34.4731 68.6299C34.1928 69.1415 33.5508 69.329 33.0391 69.0487L25.6443 64.9979C25.335 64.8285 25.1306 64.5159 25.0996 64.1646C25.0685 63.8133 25.2148 63.4697 25.4896 63.2486L32.5336 57.5817C32.9881 57.216 33.6531 57.288 34.0189 57.7425Z" fill="black"/>
<path fill-rule="evenodd" clip-rule="evenodd" d="M43.6511 57.8238C43.972 57.3366 44.6271 57.2018 45.1143 57.5226L52.5091 62.3919C52.803 62.5854 52.9812 62.9124 52.9845 63.2642C52.9878 63.6159 52.8158 63.9462 52.5256 64.1452L45.4559 68.9935C44.9747 69.3235 44.3172 69.2009 43.9872 68.7199C43.6572 68.2388 43.7797 67.5813 44.2609 67.2514L50.0345 63.2919L43.9523 59.2869C43.465 58.9661 43.3302 58.311 43.6511 57.8238Z" fill="black"/>
<path fill-rule="evenodd" clip-rule="evenodd" d="M40.8023 55.3412C41.3712 55.4705 41.7276 56.0365 41.5983 56.6053L38.38 70.7616C38.2506 71.3304 37.6846 71.6867 37.1157 71.5574C36.5468 71.4281 36.1904 70.8622 36.3197 70.2933L39.538 56.1371C39.6674 55.5682 40.2334 55.2119 40.8023 55.3412Z" fill="black"/>
</g>
<path d="M351.377 123.722C426.654 71.1696 360.518 31.5376 327.983 51.9921C305.753 65.9677 342.378 97.6379 355.465 72.7938C372.121 41.1753 372.909 4.27205 332.076 0.999926" stroke="#D4D73B" stroke-width="2" stroke-dasharray="8 8"/>
<path d="M48.5448 402.346L31.2303 392.623L31.2104 392.612L31.1901 392.601L29.4042 391.703L29.3056 391.653L29.1987 391.627C27.7502 391.262 26.2544 391.461 24.7515 392.133L24.7307 392.142L24.7103 392.152C23.2951 392.864 22.3473 393.975 21.9666 395.461L18.183 406.881L18.1668 406.93L18.1558 406.98C17.809 408.55 17.9888 410.114 18.664 411.643L18.6731 411.663L18.6832 411.684C19.3954 413.117 20.5121 414.077 22.0136 414.454L23.7996 414.904L23.8652 414.92L23.9324 414.928L43.8574 417.155L29.1693 430.718L29.1536 430.733L29.1385 430.748C28.6862 431.203 28.3301 431.58 28.0819 431.871C27.9596 432.015 27.8464 432.158 27.7584 432.29C27.7148 432.356 27.6637 432.44 27.6203 432.535C27.6127 432.551 27.6028 432.573 27.5922 432.6C26.9624 433.591 26.6153 434.636 26.6153 435.721C26.6153 437.795 27.4072 439.468 29.0401 440.575L38.3922 447.744L38.467 447.802L38.5511 447.844C39.5895 448.367 40.7116 448.625 41.9027 448.625C43.9961 448.625 45.7074 447.978 46.7081 446.453C47.1994 445.942 47.607 445.356 47.9327 444.701L47.9405 444.685L47.9478 444.669L56.4132 426.012L64.8786 444.669L64.8974 444.71L64.9197 444.749L65.8127 446.322L65.8224 446.339L65.8328 446.355C66.8238 447.951 68.5629 448.625 70.7006 448.625C71.8916 448.625 73.0137 448.367 74.0521 447.844L74.1312 447.804L74.202 447.751L83.7814 440.579C85.4177 439.471 86.2111 437.797 86.2111 435.721C86.2111 434.636 85.864 433.591 85.2343 432.6C85.2236 432.573 85.2138 432.551 85.2062 432.535C85.1627 432.44 85.1117 432.356 85.0681 432.29C84.98 432.158 84.8668 432.015 84.7445 431.871C84.4963 431.58 84.1403 431.203 83.688 430.748L83.6679 430.728L83.6466 430.709L68.7681 417.358L88.9028 414.927L88.9656 414.919L89.0269 414.904L90.8128 414.454L90.8502 414.445L90.8868 414.433C92.016 414.054 92.9273 413.303 93.6259 412.254C94.4567 411.079 94.9175 409.837 94.9175 408.543V408.461L94.904 408.38L94.6808 407.032L94.668 406.955L94.6435 406.881L90.8749 395.506C90.6558 394.166 89.8638 393.132 88.6415 392.421C87.573 391.712 86.3426 391.372 84.9879 391.372C84.436 391.372 83.8985 391.463 83.4223 391.703L83.8601 392.573L83.4223 391.703L81.6364 392.601L81.6165 392.611L81.597 392.622L63.8788 402.549L68.1068 382.697L68.1158 382.655L68.1211 382.612L68.3443 380.816L68.352 380.754V380.692C68.352 379.183 67.6905 377.828 66.5253 376.645C65.452 375.4 64.0696 374.751 62.4407 374.751H50.3858C48.7513 374.751 47.3129 375.403 46.1047 376.618L46.0776 376.645L46.0527 376.675C45.03 377.875 44.4745 379.222 44.4745 380.692V380.754L44.4821 380.816L44.7054 382.612L44.7096 382.647L44.7162 382.68L48.5448 402.346Z" stroke="#D4D73B" stroke-width="2"/>
<path opacity="0.2" d="M337.471 333.188V333.288C337.471 334.572 336.347 335.641 335.062 335.641H294.65L308.889 361.738C319.058 380.348 329.174 398.905 339.29 417.515L356.044 448.211C356.632 449.281 356.151 450.671 355.027 451.313L354.813 451.42C353.689 452.062 352.243 451.687 351.708 450.671L289.031 335.641H247.282L184.605 450.671C184.07 451.687 182.625 452.008 181.501 451.42L181.287 451.313C180.163 450.671 179.681 449.281 180.27 448.211L197.023 417.515C207.192 398.905 217.309 380.348 227.425 361.738L241.663 335.641H188.084C186.746 335.641 185.676 334.572 185.676 333.288V333.021C185.676 331.737 186.8 330.668 188.084 330.668H224.481C248.192 330.668 271.957 330.668 295.722 330.668H332.745L337.257 294.196C340.361 269.383 343.412 244.516 346.516 219.649L351.601 178.578C351.762 177.134 352.993 176.065 354.331 176.225L354.598 176.279C355.883 176.439 356.793 177.776 356.632 179.113L337.524 332.914C337.51 333.008 337.492 333.099 337.471 333.188Z" fill="white"/>
<path d="M60.3932 447.076H146.567C147.898 447.076 148.976 448.153 148.976 449.482C148.976 450.812 147.898 451.889 146.567 451.889H60.3932C59.063 451.889 57.9846 450.812 57.9846 449.482C57.9846 448.153 59.063 447.076 60.3932 447.076ZM243.161 447.175L295.517 408.177C295.896 407.916 296.274 407.762 296.702 407.77C297.452 407.729 298.195 408.063 298.667 408.66L298.823 408.93C299.61 409.853 299.37 411.293 298.394 412.024L245.128 451.905L213.757 452C212.526 451.978 211.526 450.998 211.494 449.767L211.499 449.447C211.574 448.218 212.555 447.219 213.786 447.24L243.161 447.175Z" fill="#D4D73B"/>
<path d="M148.108 447.625C147.803 447.485 147.463 447.407 147.104 447.407L60.5552 447.073C60.7186 447.038 60.3814 447.073 60.5552 447.073C60.5554 446.897 60.4713 446.813 60.5555 446.477C61.1978 443.91 63.2852 441.771 64.4628 440.701C66.9249 439.15 69.387 437.813 71.9562 436.583C81.4835 431.984 84.7485 432.038 91.0109 427.867C93.58 426.102 95.9887 424.123 98.1832 421.931C99.6462 420.469 103.373 417.838 109.368 414.452L156.204 414.547L148.108 447.625ZM297.036 408.109C296.689 408.145 296.372 408.289 296.054 408.508L243.698 447.506L214.323 447.571C214.085 447.567 213.857 447.601 213.642 447.667C213.573 447.327 213.535 446.967 213.542 446.591C213.602 446.217 213.61 445.79 213.724 445.364C214.411 442.808 216.483 440.652 217.679 439.603C220.114 438.094 222.6 436.747 225.191 435.562C230.282 433.128 233.607 432.029 236.537 430.896C236.971 430.153 237.385 429.389 237.786 428.561C238.286 427.5 238.789 426.332 239.294 425.004C240.362 422.081 241.11 419.098 241.645 416.059L244.249 407.921L245.052 405.093L277.702 381.028L297.036 408.109Z" fill="white"/>
<path d="M180.064 254.456C185.411 252.574 189.708 252.648 189.708 252.648C213.794 252.595 301.199 252.434 302.698 252.541C304.839 252.702 315.733 252.291 322.234 263.985C322.288 263.985 322.288 264.039 322.288 264.039C323.251 265.857 324.268 268.103 325.178 270.884C326.891 276.285 328.068 283.558 327.533 292.542C327.212 296.125 326.73 303.933 322.181 311.42C317.471 319.228 310.941 324.468 301.253 327.784C293.01 330.565 284.928 329.281 274.972 328.372H274.865C274.491 328.319 273.741 328.158 272.831 327.998L271.011 327.677C269.995 327.463 269.085 327.303 268.656 327.249H268.549C259.343 325.591 251.154 324.094 242.965 322.543L242.59 322.49C241.932 322.36 241.274 322.231 240.615 322.104C241.992 324.014 243.366 325.936 244.736 327.873C248.268 332.846 251.694 337.82 255.012 342.739L268.447 361.724C270.481 364.558 269.571 368.516 266.413 370.494L249.874 380.762L234.887 390.709L231.943 392.58C229 394.399 225.427 393.543 223.165 391.19C217.181 384.963 205.951 370.329 191.854 354.398C191.299 353.771 190.747 353.148 190.198 352.531C182.275 367.287 172.439 386.541 166.693 396.182C165.569 398.107 163.374 399.123 161.126 398.802L118.628 392.492C114.988 391.957 112.847 388.053 114.399 384.684C122.267 367.411 132.276 340.191 140.787 321.901C142.981 317.195 145.069 312.543 146.996 308.158C147.302 307.463 147.62 306.739 147.947 305.992C144.75 301.609 142.868 298.473 141.22 294.503C139.346 290.011 137.634 285.893 137.741 280.331C137.901 272.096 142.023 262.737 150.265 257.71C154.868 254.876 159.364 254.716 162.041 254.502C165.627 254.395 169.748 254.448 174.351 254.448C176.754 254.429 178.564 254.417 180.064 254.456Z" fill="#111111"/>
<path opacity="0.176986" d="M179.279 254.44C173.018 256.773 165.501 261.813 161.745 272.702C161.694 272.803 153.398 292.763 147.74 305.707C144.669 301.472 142.832 298.386 141.22 294.503C139.346 290.01 137.634 285.893 137.741 280.331C137.901 272.096 142.023 262.737 150.265 257.71C154.868 254.876 159.364 254.715 162.041 254.501C165.627 254.394 169.748 254.448 174.351 254.448C176.35 254.432 177.938 254.421 179.279 254.44V254.44ZM240.474 321.909C241.899 323.882 243.319 325.87 244.736 327.872C248.268 332.846 251.694 337.819 255.012 342.739L268.447 361.724C270.481 364.558 269.571 368.515 266.413 370.494L249.874 380.762L234.887 390.708L231.943 392.58C229 394.398 225.427 393.543 223.165 391.19C217.181 384.963 205.951 370.329 191.854 354.397C191.225 353.687 190.6 352.982 189.978 352.284C191.937 348.637 193.778 345.265 195.412 342.383C195.412 342.383 196.91 339.709 200.122 334.629C202.745 330.457 205.474 326.821 207.776 323.773C209.007 322.115 210.72 319.815 212.861 317.141C215.269 317.462 217.678 317.783 220.086 318.157C223.405 318.746 226.723 319.387 230.095 319.976C233.583 320.609 237.031 321.243 240.474 321.909Z" fill="#444444"/>
<path d="M202.661 306.019C205.583 309.904 206.486 310.995 207.425 311.913C208.292 312.76 209.152 313.799 212.028 317.624C212.294 317.978 212.798 318.049 213.152 317.783C213.507 317.517 213.578 317.014 213.312 316.66C210.39 312.775 209.488 311.684 208.548 310.766C207.681 309.919 206.821 308.88 203.945 305.055C203.679 304.701 203.175 304.63 202.821 304.896C202.466 305.162 202.395 305.665 202.661 306.019Z" fill="black"/>
<path d="M259.837 149.084C269.507 146.313 279.464 148.738 286.686 154.735L287.069 154.99C288.176 155.784 289.405 157.099 290.688 158.774C291.612 159.908 292.456 161.118 293.21 162.4C298.981 171.401 304.989 185.236 305.805 190.594C305.805 192.177 304.832 193.532 303.452 194.096L311.673 222.047C312.175 223.7 314.366 230.374 314.901 240.531C315.258 247.301 311.869 251.376 304.735 252.756C296.362 252.669 282.353 252.826 262.708 253.226C243.063 253.625 231.325 232.396 227.496 189.536C223.268 175.519 229.908 160.942 242.539 154.739L240.936 150.09C240.744 149.531 241.041 148.922 241.6 148.73L256.782 143.507C257.341 143.315 257.95 143.611 258.143 144.17L259.837 149.084Z" fill="#D4D73B"/>
<path d="M252.341 127.054L256.848 143.864L241.854 149.022L240.751 144.643C240.536 144.755 240.315 144.869 240.088 144.985C235.807 147.263 236.056 147.076 235.748 147.215C232.489 148.472 229.609 148.72 229.071 148.723C224.566 148.874 218.494 141.284 214.915 129.776C214.601 128.841 214.448 127.89 214.24 126.943L212.813 117.468C212.483 115.352 212.685 113.18 213.5 111.212C213.842 110.37 214.19 109.58 214.607 108.945C219.318 101.03 229.572 101.297 231.404 101.32C231.617 101.298 231.836 101.329 232.049 101.306C234.122 101.572 235.892 101.01 237.803 100.756C238.655 100.666 239.42 101.285 239.562 102.13L241.261 115.718C241.386 116.565 243.019 115.811 246.161 113.455C250.055 115.502 252.413 117.361 253.234 119.031C254.595 121.738 254.046 124.699 252.591 126.734C252.51 126.844 252.426 126.951 252.341 127.054ZM196.535 229.908C204.041 228.095 212.437 226.071 221.725 223.837L226.786 189.935C226.856 189.169 226.962 188.265 227.129 187.25C227.296 188.018 227.495 188.786 227.726 189.552C232.639 203.044 237.206 214.482 241.428 223.866C252.582 222.25 263.114 221.02 270.721 219.314C270.732 218.589 269.977 210.002 268.457 193.552L302.113 194.72C302.153 194.722 302.193 194.723 302.233 194.723C303.096 200.22 303.394 206.979 303.126 215.001C302.617 230.257 304.277 242.692 294.9 249.357C292.715 250.914 292.09 251.978 284.581 252.558C268.878 253.772 254.617 253.418 240.153 252.786C245.088 253.026 249.991 253.238 254.937 253.366C233.096 254.403 160.91 255.277 154.611 255.066C147.177 254.818 143.421 252.389 141.917 248.815C140.709 245.945 148.031 242.187 149.147 241.607C149.371 241.491 151.733 240.869 156.231 239.743C152.869 239.193 149.903 237.649 150.098 233.892C150.098 233.892 178.592 229.514 186.542 228.397L186.36 228.522C188.254 228.277 190.259 228.25 192.438 228.659C193.644 228.868 195.01 229.285 196.535 229.908ZM234.883 390.654L250.137 380.493L266.194 370.6C267.071 370.05 268.088 369.249 268.603 368.461L277.702 381.028L245.085 405.043L234.883 390.654ZM119.538 392.525L160.484 398.675L156.202 414.719L109.368 414.451L119.538 392.525Z" fill="#DA8657"/>
<path opacity="0.2" d="M241.21 223.782C236.366 224.484 231.405 225.259 226.516 226.177C214.776 228.383 205.788 230.097 199.551 231.319C198.289 230.667 197.111 230.126 196.018 229.693C203.579 227.867 212.048 225.825 221.425 223.57L226.485 189.667C226.556 188.901 226.662 187.998 226.829 186.983C226.996 187.751 227.195 188.518 227.426 189.284C232.371 202.864 236.966 214.363 241.21 223.782ZM254.637 253.099C232.796 254.135 160.61 255.009 154.311 254.799C146.877 254.551 143.121 252.122 141.617 248.547C140.408 245.677 147.731 241.919 148.847 241.34C149.073 241.222 151.465 240.593 156.023 239.453C158.551 239.895 161.334 239.735 163.142 239.535C168.146 240.028 173.098 240.468 178.102 240.961C179.674 241.581 181.247 242.201 182.819 242.822C185.423 247.245 205.584 250.61 213.413 251.187C215.814 251.356 217.256 251.48 220.56 251.586C232.279 252.074 243.348 252.807 254.637 253.099Z" fill="#8C2A00"/>
<path d="M216.126 126.984C216.327 127.877 216.644 129.35 216.178 130.044C215.587 131.074 213.68 128.801 213.873 127.06C213.954 126.298 214.305 126.046 214.731 126.002C215.369 125.935 215.952 126.357 216.126 126.984ZM225.567 125.67C225.822 126.558 226.085 128.036 225.62 128.73C225.029 129.76 223.121 127.487 223.315 125.745C223.396 124.984 223.746 124.732 224.172 124.688C224.811 124.62 225.394 125.043 225.567 125.67Z" fill="black"/>
<path d="M211.702 123.308C211.159 123.258 210.879 122.642 211.212 122.23C211.647 121.755 212.389 121.139 213.448 120.974C215.619 120.638 218.149 121.663 215.885 122.654C214.451 123.342 212.731 123.362 211.702 123.308ZM227.146 100.897C222.986 98.675 220.066 94.8661 219.586 90.2971C218.751 82.3663 225.582 75.1489 234.843 74.1764C244.103 73.2039 252.287 78.8447 253.121 86.7754C253.625 91.5658 251.332 96.0959 247.397 99.1467C249.698 98.9129 251.529 98.964 253.68 99.7573C254.464 100.051 256.316 100.771 258.055 102.47C263.016 107.165 262.833 114.121 262.833 116.164C262.619 122.317 259.786 126.594 258.659 128.164C256.036 131.881 253.617 133.884 251.402 134.175C250.118 132.321 249.106 130.553 248.366 128.869C249.296 128.453 250.597 127.684 251.571 126.273C252.972 124.244 253.528 121.336 252.178 118.735C250.945 116.23 248.071 114.488 245.539 114.969C244.112 115.227 243.079 116.142 242.93 116.265C241.652 117.461 240.878 118.999 240.61 119.591C240.612 119.514 240.615 119.436 240.618 119.358C238.069 118.657 233.858 117.002 230.175 113.195C228.912 111.93 227.909 110.583 227.136 109.374C225.074 110.236 221.681 111.237 217.61 110.912C216.166 110.798 214.88 110.199 213.731 109.886C213.723 109.876 213.719 109.87 213.719 109.87C213.649 109.716 214.319 108.784 214.307 108.678C217.463 103.24 223.363 101.461 227.146 100.897ZM222.029 122.224C221.486 122.173 221.206 121.557 221.592 121.14C222.027 120.665 222.769 120.049 223.881 119.878C226.053 119.543 228.588 120.621 226.319 121.558C224.831 122.252 223.111 122.272 222.029 122.224Z" fill="#47270A"/>
<path d="M241.25 147.575L245.928 141.353L240.446 144.366L241.25 147.575Z" fill="black"/>
<path d="M268.746 192.328C268.99 192.697 268.889 193.195 268.519 193.439C268.149 193.684 267.651 193.582 267.406 193.213C263.13 186.75 260.954 179.26 261.118 171.523C261.127 171.08 261.494 170.728 261.938 170.737C262.381 170.747 262.733 171.114 262.723 171.557C262.567 178.967 264.649 186.136 268.746 192.328Z" fill="black"/>
<path d="M218.941 127.137L218.935 127.059L218.935 127.098L218.941 127.137ZM218.895 132.817L218.898 132.877C218.959 133.457 219.414 133.954 220.003 133.99C220.111 133.989 220.171 133.987 220.23 133.985C220.797 133.962 221.202 133.925 222.652 133.773C222.946 133.742 223.16 133.479 223.129 133.185C223.098 132.891 222.834 132.678 222.54 132.709C221.116 132.859 220.722 132.895 220.188 132.916C220.132 132.918 220.077 132.92 220.021 132.922C220.033 132.92 219.982 132.863 219.966 132.786L220.006 127.067L220.001 126.989L219.564 123.862C219.523 123.57 219.253 123.366 218.96 123.407C218.667 123.447 218.463 123.718 218.504 124.01L218.935 127.098L218.895 132.817Z" fill="black"/>
<path d="M118.76 247.606C119.294 248.548 120.306 249.184 121.464 249.184H198.379C200.092 249.184 201.43 247.794 201.43 246.083C201.43 244.371 200.038 242.981 198.379 242.981H123.565L97.4854 172.872C96.8966 171.268 95.1303 170.465 93.5246 171.054C91.9189 171.642 91.116 173.407 91.7048 175.011L118.52 247.099C118.586 247.278 118.667 247.448 118.76 247.606Z" fill="white"/>
<defs>
<clipPath id="clip0">
<rect width="120.894" height="74.8684" fill="white" transform="translate(16.9851 49.3252)"/>
</clipPath>
</defs>
</svg>
