<svg width="272" height="250" viewBox="0 0 272 250" fill="none" xmlns="http://www.w3.org/2000/svg">
<mask id="mask0" mask-type="alpha" maskUnits="userSpaceOnUse" x="0" y="0" width="272" height="250">
<rect width="272" height="250" fill="black"/>
</mask>
<g mask="url(#mask0)">
<rect x="21.0325" y="50.801" width="229.445" height="146.59" rx="8" fill="black"/>
<rect x="21.0325" y="50.801" width="229.445" height="146.59" rx="8" fill="url(#paint0_linear)" fill-opacity="0.2"/>
<rect x="5.73608" y="82.6685" width="229.445" height="146.59" rx="8" transform="rotate(-15 5.73608 82.6685)" fill="black"/>
<rect x="5.73608" y="82.6685" width="229.445" height="146.59" rx="8" transform="rotate(-15 5.73608 82.6685)" fill="url(#paint1_linear)" fill-opacity="0.4"/>
<g filter="url(#filter0_i)">
<rect y="117.722" width="229.445" height="146.59" rx="8" transform="rotate(-30 0 117.722)" fill="url(#paint2_linear)"/>
</g>
<path d="M136.646 59.2686C134.902 60.2465 134.397 62.5792 135.52 64.4688C136.644 66.3585 138.976 67.1001 140.72 66.1222C142.465 65.1443 142.97 62.8116 141.846 60.922C140.723 59.0324 138.39 58.2907 136.646 59.2686ZM140.06 65.0119C138.881 65.6729 137.304 65.1715 136.545 63.8942C135.786 62.6169 136.127 61.04 137.306 60.3789C138.485 59.7179 140.062 60.2193 140.821 61.4966C141.581 62.7739 141.239 64.3508 140.06 65.0119Z" fill="black"/>
<path d="M154.998 48.673C153.254 49.6509 152.749 51.9837 153.872 53.8732C154.996 55.7629 157.328 56.5045 159.072 55.5266C159.957 55.0304 160.567 54.148 160.744 53.1053C160.801 52.772 160.578 52.4288 160.246 52.3388C159.914 52.2488 159.599 52.4459 159.542 52.7791C159.422 53.4842 159.011 54.0809 158.412 54.4163C157.41 54.9781 156.123 54.6979 155.292 53.8175L160.016 51.1688C160.299 51.0101 160.38 50.6331 160.198 50.3264C159.075 48.4368 156.742 47.6952 154.998 48.673ZM155.658 49.7833C156.66 49.2215 157.948 49.5018 158.779 50.3821L154.632 52.7071C154.262 51.5684 154.656 50.3452 155.658 49.7833Z" fill="black"/>
<path d="M133.196 67.4114C132.86 67.3744 132.584 67.6221 132.58 67.9647C132.569 68.837 132.134 69.5981 131.416 70.0003C130.24 70.6602 128.666 70.1598 127.908 68.8847C127.15 67.6097 127.491 66.0356 128.667 65.3757C128.993 65.1932 129.351 65.0953 129.732 65.0847C130.065 65.076 130.303 64.789 130.262 64.4444C130.221 64.1 129.918 63.828 129.584 63.8373C129.02 63.8527 128.489 63.9975 128.008 64.2673C126.268 65.2435 125.764 67.5721 126.885 69.4583C128.006 71.3446 130.334 72.0849 132.075 71.1087C133.137 70.5136 133.78 69.3883 133.797 68.0987C133.801 67.7561 133.532 67.4483 133.196 67.4114Z" fill="black"/>
<path d="M146.952 50.3516C146.671 50.5091 146.59 50.8837 146.771 51.1882L148.349 53.8445C147.459 53.6011 146.511 53.6785 145.694 54.1372C143.963 55.1083 143.462 57.4248 144.577 59.3014C145.691 61.1779 148.006 61.9144 149.737 60.9432C150.554 60.4845 151.097 59.7257 151.325 58.8548L151.531 59.2014C151.712 59.5059 152.086 59.6249 152.367 59.4674C152.648 59.3098 152.729 58.9353 152.548 58.6307L147.788 50.6175C147.607 50.3131 147.232 50.194 146.952 50.3516ZM149.082 59.8405C147.912 60.497 146.347 59.9992 145.593 58.7307C144.84 57.4622 145.179 55.8963 146.349 55.2398C147.519 54.5834 149.083 55.0811 149.837 56.3497C150.59 57.6181 150.252 59.1841 149.082 59.8405Z" fill="black"/>
<path d="M175.899 36.6497C175.616 36.8083 175.535 37.1855 175.717 37.4921L175.925 37.8412C175.028 37.596 174.073 37.6739 173.249 38.1358C171.504 39.1138 171 41.4465 172.123 43.3361C173.246 45.2258 175.579 45.9674 177.323 44.9894C178.147 44.5275 178.694 43.7632 178.924 42.8864L179.131 43.2354C179.314 43.542 179.691 43.6619 179.974 43.5033C180.257 43.3446 180.339 42.9674 180.156 42.6608L176.742 36.9176C176.56 36.611 176.182 36.491 175.899 36.6497ZM176.663 43.8791C175.484 44.5401 173.907 44.0389 173.148 42.7615C172.388 41.4842 172.73 39.9071 173.909 39.2462C175.088 38.5852 176.665 39.0865 177.424 40.3637C178.184 41.6411 177.842 43.2181 176.663 43.8791Z" fill="black"/>
<path d="M182.626 32.7219C180.882 33.6999 180.377 36.0325 181.5 37.9221L183.208 40.7938C183.39 41.1004 183.767 41.2205 184.05 41.0617C184.333 40.903 184.415 40.5258 184.232 40.2192L182.525 37.3475C181.766 36.0703 182.107 34.4934 183.286 33.8322C184.465 33.1712 186.042 33.6728 186.801 34.95L188.508 37.8217C188.691 38.1283 189.068 38.2482 189.351 38.0896C189.634 37.9307 189.716 37.5537 189.533 37.2471L187.826 34.3754C186.703 32.4859 184.37 31.7441 182.626 32.7219Z" fill="black"/>
<path d="M164.406 43.3336C163.589 43.7923 163.046 44.5513 162.818 45.422L161.24 42.7656C161.059 42.4612 160.685 42.3421 160.404 42.4996C160.123 42.6573 160.042 43.0318 160.223 43.3363L164.983 51.3496C165.164 51.654 165.538 51.7731 165.819 51.6155C166.1 51.458 166.181 51.0833 166 50.7789L165.794 50.4323C166.684 50.6757 167.632 50.5984 168.449 50.1397C170.18 49.1687 170.681 46.8522 169.566 44.9756C168.451 43.0991 166.136 42.3626 164.406 43.3336ZM167.794 49.0371C166.624 49.6936 165.059 49.1956 164.306 47.9271C163.552 46.6587 163.891 45.0927 165.061 44.4363C166.231 43.7798 167.796 44.2778 168.549 45.5462C169.303 46.8147 168.964 48.3807 167.794 49.0371Z" fill="black"/>
<path d="M195.848 31.5251L193.15 30.2845L193.973 26.5477C194.044 26.2225 193.839 25.874 193.514 25.7691C193.19 25.6643 192.869 25.8428 192.797 26.1682L191.558 31.7926L188.684 26.9499C188.504 26.6464 188.131 26.5279 187.852 26.6848C187.572 26.8418 187.491 27.215 187.672 27.5185L192.411 35.5033C192.591 35.8066 192.963 35.9253 193.243 35.7683C193.522 35.6113 193.603 35.238 193.423 34.9347L192.477 33.3406L192.889 31.4713L195.445 32.6471C195.628 32.731 195.821 32.7204 195.972 32.6353C196.081 32.5747 196.167 32.4762 196.214 32.347C196.325 32.0374 196.161 31.6696 195.848 31.5251Z" fill="black"/>
<path d="M196.872 32.0382C196.59 32.1963 196.509 32.5724 196.691 32.8781C196.872 33.1838 197.248 33.3033 197.53 33.1451C197.813 32.987 197.894 32.6109 197.713 32.3051C197.531 31.9994 197.154 31.88 196.872 32.0382Z" fill="black"/>
<path d="M131.793 65.3585C132.075 65.2003 132.156 64.8242 131.975 64.5185C131.793 64.2128 131.417 64.0933 131.135 64.2515C130.853 64.4098 130.771 64.7857 130.953 65.0914C131.135 65.3971 131.511 65.5167 131.793 65.3585Z" fill="black"/>
<rect opacity="0.2" x="42.6045" y="152" width="31.8673" height="24.2192" rx="6" transform="rotate(-30 42.6045 152)" fill="black"/>
<path d="M91.0791 146.28C91.7374 143.773 91.4457 141.015 90.047 138.592C88.7065 136.27 86.5906 134.675 84.2153 133.945L84.8069 132.795C87.3909 133.646 89.6837 135.414 91.151 137.955C92.6854 140.613 93.0356 143.629 92.3652 146.393L91.0791 146.28Z" fill="black"/>
<path d="M89.7882 146.167C90.4376 143.918 90.2062 141.417 88.9431 139.23C87.7291 137.127 85.7884 135.705 83.6213 135.099L83.0237 136.26C84.9829 136.737 86.7514 137.983 87.8392 139.867C88.9669 141.82 89.1351 144.064 88.4901 146.053L89.7882 146.167Z" fill="black"/>
<path d="M82.4201 137.432C84.1721 137.77 85.7731 138.838 86.7353 140.504C87.7281 142.224 87.8285 144.214 87.1802 145.938L85.8488 145.821C86.5143 144.37 86.4903 142.629 85.6314 141.142C84.7937 139.691 83.3507 138.807 81.8056 138.626L82.4201 137.432Z" fill="black"/>
<path d="M84.4706 145.7C85.1838 144.542 85.2551 143.039 84.5275 141.779C83.8111 140.538 82.5045 139.851 81.1672 139.867L80.5016 141.16L80.5431 141.231C81.6342 140.932 82.8314 141.391 83.4235 142.416C84.0156 143.442 83.8143 144.708 83.01 145.503L83.0516 145.575L84.4706 145.7Z" fill="black"/>
<circle cx="237.175" cy="120.619" r="10.1975" transform="rotate(-30 237.175 120.619)" fill="black"/>
<circle cx="225.032" cy="127.63" r="10.1975" transform="rotate(-30 225.032 127.63)" fill="black"/>
<mask id="path-19-inside-1" fill="white">
<path fill-rule="evenodd" clip-rule="evenodd" d="M234.806 130.538C235.576 127.947 235.321 125.057 233.863 122.531C232.405 120.005 230.03 118.34 227.401 117.711C226.63 120.302 226.885 123.192 228.344 125.718C229.802 128.243 232.177 129.909 234.806 130.538Z"/>
</mask>
<path d="M234.806 130.538L234.573 131.51L235.495 131.73L235.764 130.823L234.806 130.538ZM227.401 117.711L227.633 116.739L226.712 116.518L226.442 117.426L227.401 117.711ZM232.997 123.031C234.312 125.309 234.543 127.914 233.847 130.253L235.764 130.823C236.61 127.98 236.33 124.804 234.729 122.031L232.997 123.031ZM227.168 118.684C229.541 119.251 231.682 120.753 232.997 123.031L234.729 122.031C233.128 119.258 230.518 117.428 227.633 116.739L227.168 118.684ZM229.21 125.218C227.894 122.94 227.664 120.335 228.359 117.996L226.442 117.426C225.597 120.269 225.876 123.445 227.478 126.218L229.21 125.218ZM235.038 129.565C232.666 128.998 230.525 127.496 229.21 125.218L227.478 126.218C229.079 128.991 231.689 130.821 234.573 131.51L235.038 129.565Z" fill="#EAEAEA" mask="url(#path-19-inside-1)"/>
</g>
<defs>
<filter id="filter0_i" x="0" y="3" width="272" height="241.673" filterUnits="userSpaceOnUse" color-interpolation-filters="sRGB">
<feFlood flood-opacity="0" result="BackgroundImageFix"/>
<feBlend mode="normal" in="SourceGraphic" in2="BackgroundImageFix" result="shape"/>
<feColorMatrix in="SourceAlpha" type="matrix" values="0 0 0 0 0 0 0 0 0 0 0 0 0 0 0 0 0 0 127 0" result="hardAlpha"/>
<feOffset dx="4" dy="2"/>
<feComposite in2="hardAlpha" operator="arithmetic" k2="-1" k3="1"/>
<feColorMatrix type="matrix" values="0 0 0 0 1 0 0 0 0 1 0 0 0 0 1 0 0 0 1 0"/>
<feBlend mode="normal" in2="shape" result="effect1_innerShadow"/>
</filter>
<linearGradient id="paint0_linear" x1="-22.9445" y1="-84.9539" x2="250.477" y2="124.096" gradientUnits="userSpaceOnUse">
<stop stop-color="white"/>
<stop offset="1" stop-color="#E7E7E7"/>
</linearGradient>
<linearGradient id="paint1_linear" x1="-38.2408" y1="-53.0864" x2="235.181" y2="155.963" gradientUnits="userSpaceOnUse">
<stop stop-color="white"/>
<stop offset="1" stop-color="#E7E7E7"/>
</linearGradient>
<linearGradient id="paint2_linear" x1="-43.9769" y1="-18.0325" x2="229.445" y2="191.017" gradientUnits="userSpaceOnUse">
<stop stop-color="white"/>
<stop offset="1" stop-color="#E7E7E7"/>
</linearGradient>
</defs>
</svg>
