<svg width="56" height="36" viewBox="0 0 56 36" fill="none" xmlns="http://www.w3.org/2000/svg">
<rect x="0.5" y="0.5" width="55" height="35" rx="17.5" stroke="white"/>
<path d="M29.4857 27.0474C31.8308 24.6785 33.279 21.4201 33.279 17.8235C33.279 14.3763 31.9486 11.2398 29.7733 8.89946L31.1709 8C33.5012 10.6084 34.9179 14.0505 34.9179 17.8235C34.9179 21.7693 33.3686 25.3531 30.8451 28L29.4857 27.0474Z" fill="#F5F5F5"/>
<path d="M28.1213 26.0912C30.2904 24.0041 31.6401 21.0714 31.6401 17.8235C31.6401 14.7017 30.3931 11.871 28.3701 9.80255L26.9583 10.7112C28.8332 12.5018 30.0012 15.0262 30.0012 17.8235C30.0012 20.7233 28.746 23.33 26.7493 25.1298L28.1213 26.0912Z" fill="#F5F5F5"/>
<path d="M25.5323 11.6289C27.2658 13.1314 28.3623 15.3494 28.3623 17.8235C28.3623 20.3764 27.1948 22.6567 25.3647 24.1595L23.9575 23.1734C25.6312 21.9856 26.7234 20.0321 26.7234 17.8235C26.7234 15.6696 25.6845 13.7582 24.0806 12.5632L25.5323 11.6289Z" fill="#F5F5F5"/>
<path d="M22.5008 22.1525C24.0392 21.3217 25.0845 19.6947 25.0845 17.8235C25.0845 15.9815 24.0715 14.3761 22.5723 13.5339L21 14.5458L21 14.6523C22.4072 15.0206 23.4455 16.3008 23.4455 17.8235C23.4455 19.3459 22.4076 20.626 21.0008 20.9945L21.0008 21.1014L22.5008 22.1525Z" fill="#F5F5F5"/>
</svg>
